<svg xmlns="http://www.w3.org/2000/svg" version="1.1" xmlns:xlink="http://www.w3.org/1999/xlink" xmlns:svgjs="http://svgjs.dev/svgjs" width="1000" height="1000" viewBox="0 0 1000 1000"><rect width="1000" height="1000" fill="#471aa0"></rect><g transform="matrix(0.7,0,0,0.7,149.55165193380674,195.0471255060728)"><svg viewBox="0 0 283 247" data-background-color="#471aa0" preserveAspectRatio="xMidYMid meet" height="872" width="1000" xmlns="http://www.w3.org/2000/svg" xmlns:xlink="http://www.w3.org/1999/xlink"><g id="tight-bounds" transform="matrix(1,0,0,1,0.1812607181895487,-0.09999999999999432)"><svg viewBox="0 0 282.63747777731237 247.2" height="247.2" width="282.63747777731237"><g><svg viewBox="0 0 395.52 345.92915549944917" height="247.2" width="282.63747777731237"><g transform="matrix(1,0,0,1,0,231.53309369524155)"><svg viewBox="0 0 395.52 114.39606180420763" height="114.39606180420763" width="395.52"><g><svg viewBox="0 0 395.52 114.39606180420763" height="114.39606180420763" width="395.52"><g><svg viewBox="0 0 395.52 72.1995259799453" height="72.1995259799453" width="395.52"><g transform="matrix(1,0,0,1,0,0)"><svg width="395.52" viewBox="5 -39.54999923706055 219.38999938964844 40.04999923706055" height="72.1995259799453" data-palette-color="#a437db"><path d="M15.95 0L6.95 0Q6.1 0 5.55-0.55 5-1.1 5-1.95L5-1.95 5-37.1Q5-37.95 5.55-38.5 6.1-39.05 6.95-39.05L6.95-39.05 15.95-39.05Q20.25-39.05 23.83-37.63 27.4-36.2 30-33.58 32.6-30.95 34.02-27.4 35.45-23.85 35.45-19.55L35.45-19.55Q35.45-15.25 34.02-11.68 32.6-8.1 30-5.48 27.4-2.85 23.83-1.43 20.25 0 15.95 0L15.95 0ZM8.9-35.55L8.9-3.5 15.95-3.5Q20.55-3.5 24.08-5.58 27.6-7.65 29.6-11.28 31.6-14.9 31.6-19.55L31.6-19.55Q31.6-24.2 29.6-27.83 27.6-31.45 24.08-33.5 20.55-35.55 15.95-35.55L15.95-35.55 8.9-35.55ZM45.45 0L45.45 0Q44.6 0 44.05-0.55 43.5-1.1 43.5-1.95L43.5-1.95 43.5-37.1Q43.5-37.95 44.05-38.5 44.6-39.05 45.45-39.05L45.45-39.05 54.8-39.05Q58.45-39.05 61.3-37.52 64.15-36 65.77-33.27 67.4-30.55 67.4-27L67.4-27Q67.4-23.6 65.77-20.95 64.15-18.3 61.3-16.8 58.45-15.3 54.8-15.3L54.8-15.3 47.4-15.3 47.4-1.95Q47.4-1.1 46.85-0.55 46.3 0 45.45 0ZM66.35 0L66.35 0Q65.7 0 65.32-0.25 64.95-0.5 64.65-1L64.65-1 55.05-16.3 58.95-17.3 67.9-3Q68.65-1.8 68.17-0.9 67.7 0 66.35 0ZM47.4-35.3L47.4-19.05 54.8-19.05Q57.35-19.05 59.32-20.08 61.3-21.1 62.45-22.9 63.6-24.7 63.6-27L63.6-27Q63.6-29.45 62.45-31.33 61.3-33.2 59.32-34.25 57.35-35.3 54.8-35.3L54.8-35.3 47.4-35.3ZM72.25 0L72.25 0Q71.1 0 70.6-0.95 70.1-1.9 70.5-2.8L70.5-2.8 85.2-37.7Q85.75-39.05 87.1-39.05L87.1-39.05Q88.4-39.05 88.95-37.7L88.95-37.7 103.7-2.75Q104.15-1.8 103.57-0.9 103 0 101.95 0L101.95 0Q101.35 0 100.87-0.3 100.4-0.6 100.1-1.2L100.1-1.2 86.35-34.55 87.9-34.55 74.05-1.2Q73.8-0.6 73.32-0.3 72.85 0 72.25 0ZM98.85-9.3L75.55-9.3 77.05-12.65 97.35-12.65 98.85-9.3ZM126.09 0.5L126.09 0.5Q122.04 0.5 118.52-1.05 114.99-2.6 112.32-5.38 109.64-8.15 108.14-11.78 106.64-15.4 106.64-19.55L106.64-19.55Q106.64-23.65 108.12-27.28 109.59-30.9 112.27-33.65 114.94-36.4 118.47-37.98 121.99-39.55 126.09-39.55L126.09-39.55Q129.69-39.55 132.64-38.5 135.59-37.45 138.34-35.15L138.34-35.15Q138.79-34.8 138.87-34.33 138.94-33.85 138.74-33.43 138.54-33 138.14-32.8L138.14-32.8Q138.04-32.4 137.64-32.2 137.24-32 136.72-32.05 136.19-32.1 135.69-32.5L135.69-32.5Q133.74-34.2 131.44-35.02 129.14-35.85 126.09-35.85L126.09-35.85Q122.84-35.85 120.02-34.55 117.19-33.25 115.04-31 112.89-28.75 111.67-25.8 110.44-22.85 110.44-19.55L110.44-19.55Q110.44-16.15 111.67-13.2 112.89-10.25 115.04-8 117.19-5.75 120.02-4.48 122.84-3.2 126.09-3.2L126.09-3.2Q128.84-3.2 131.29-4.1 133.74-5 135.94-6.7L135.94-6.7Q136.54-7.2 137.22-7.1 137.89-7 138.39-6.5 138.89-6 138.89-5.2L138.89-5.2Q138.89-4.8 138.79-4.48 138.69-4.15 138.34-3.8L138.34-3.8Q135.79-1.45 132.64-0.48 129.49 0.5 126.09 0.5ZM138.89-17.6L138.89-5.2 135.09-6 135.09-16.05 127.29-16.05Q126.44-16.05 125.89-16.55 125.34-17.05 125.34-17.8L125.34-17.8Q125.34-18.55 125.89-19.03 126.44-19.5 127.29-19.5L127.29-19.5 136.94-19.5Q137.79-19.5 138.34-18.98 138.89-18.45 138.89-17.6L138.89-17.6ZM165.14 0.5L165.14 0.5Q160.79 0.5 157.14-1 153.49-2.5 150.82-5.2 148.14-7.9 146.67-11.55 145.19-15.2 145.19-19.55L145.19-19.55Q145.19-23.85 146.67-27.5 148.14-31.15 150.82-33.85 153.49-36.55 157.14-38.05 160.79-39.55 165.14-39.55L165.14-39.55Q169.44-39.55 173.09-38.05 176.74-36.55 179.44-33.85 182.14-31.15 183.62-27.5 185.09-23.85 185.09-19.55L185.09-19.55Q185.09-15.2 183.62-11.55 182.14-7.9 179.44-5.2 176.74-2.5 173.09-1 169.44 0.5 165.14 0.5ZM165.14-3.2L165.14-3.2Q168.59-3.2 171.54-4.42 174.49-5.65 176.67-7.88 178.84-10.1 180.04-13.08 181.24-16.05 181.24-19.55L181.24-19.55Q181.24-23 180.04-25.98 178.84-28.95 176.67-31.18 174.49-33.4 171.54-34.63 168.59-35.85 165.14-35.85L165.14-35.85Q161.64-35.85 158.69-34.63 155.74-33.4 153.57-31.18 151.39-28.95 150.19-25.98 148.99-23 148.99-19.55L148.99-19.55Q148.99-16.05 150.19-13.08 151.39-10.1 153.57-7.88 155.74-5.65 158.69-4.42 161.64-3.2 165.14-3.2ZM195.09 0L195.09 0Q194.24 0 193.69-0.55 193.14-1.1 193.14-1.95L193.14-1.95 193.14-37.1Q193.14-37.95 193.69-38.5 194.24-39.05 195.09-39.05L195.09-39.05Q195.99-39.05 196.59-38.35L196.59-38.35 220.49-6.95 220.49-37.1Q220.49-37.95 221.04-38.5 221.59-39.05 222.44-39.05L222.44-39.05Q223.24-39.05 223.81-38.5 224.39-37.95 224.39-37.1L224.39-37.1 224.39-1.95Q224.39-1.1 223.81-0.55 223.24 0 222.44 0L222.44 0Q222.04 0 221.64-0.15 221.24-0.3 220.99-0.65L220.99-0.65 197.04-32.05 197.04-1.95Q197.04-1.1 196.46-0.55 195.89 0 195.09 0Z" opacity="1" transform="matrix(1,0,0,1,0,0)" fill="#a437db" class="undefined-text-0" data-fill-palette-color="primary" id="text-0"></path></svg></g></svg></g><g transform="matrix(1,0,0,1,0,89.24410127518688)"><svg viewBox="0 0 395.52 25.151960529020755" height="25.151960529020755" width="395.52"><g transform="matrix(1,0,0,1,0,0)"><svg width="395.52" viewBox="1 -35 729.6500244140625 46.400001525878906" height="25.151960529020755" data-palette-color="#bb84e8"><path d="M9.5-24L9.5 0 5.1 0 5.1-19.8 1-19.8 3-24 9.5-24ZM4.9-29L4.9-29Q4.25-29.85 4.25-30.85 4.25-31.85 4.9-32.68 5.55-33.5 6.9-33.5 8.25-33.5 8.9-32.68 9.55-31.85 9.55-30.85 9.55-29.85 8.9-29.03 8.25-28.2 6.9-28.2 5.55-28.2 4.9-29ZM16.45 0L16.45-24 25.1-24Q30.65-24 33.05-22.35L33.05-22.35Q35.2-20.9 35.78-18.88 36.35-16.85 36.35-13.55L36.35-13.55 36.35 0 31.95 0 31.95-13.5Q31.95-14.4 31.9-15.03 31.85-15.65 31.55-16.63 31.25-17.6 30.7-18.23 30.15-18.85 29.1-19.33 28.05-19.8 26.55-19.8L26.55-19.8 20.85-19.8 20.85 0 16.45 0ZM55.95-19.8L51.5-19.8 60.45-28.75 60.45-24 67.2-24 67.2-19.8 60.45-19.8 60.45-9.5Q60.45-7.75 61.03-6.6 61.6-5.45 62.7-4.98 63.8-4.5 64.78-4.35 65.75-4.2 67.2-4.2L67.2-4.2 67.2 0Q61.45 0 58.7-2.2 55.95-4.4 55.95-9.5L55.95-9.5 55.95-19.8ZM71.95-35L76.35-35 76.35-24 80.6-24Q86.15-24 88.55-22.35L88.55-22.35Q90.7-20.9 91.28-18.88 91.85-16.85 91.85-13.55L91.85-13.55 91.85 0 87.45 0 87.45-13.5Q87.45-14.4 87.4-15.03 87.35-15.65 87.05-16.63 86.75-17.6 86.2-18.23 85.65-18.85 84.6-19.33 83.55-19.8 82.05-19.8L82.05-19.8 76.35-19.8 76.35 0 71.95 0 71.95-35ZM109.6-24.5L109.6-24.5Q118.1-24.15 118.1-17.45L118.1-17.45Q118.1-9.1 107.15-9.1L107.15-9.1 105.1-9.1 105.1-12.95 107.5-12.95Q110.85-12.95 112.15-13.98 113.45-15 113.45-17.4L113.45-17.4Q113.45-18.95 112.3-19.73 111.15-20.5 109.35-20.5L109.35-20.5Q105.8-20.5 103.78-18 101.75-15.5 101.75-12L101.75-12Q101.75-8.3 103.93-6 106.1-3.7 109.6-3.7L109.6-3.7Q112.75-3.7 114.75-5.25L114.75-5.25 117.75-2.3Q114.3 0.5 109.6 0.5L109.6 0.5Q103.9 0.5 100.5-2.85 97.1-6.2 97.1-11.5L97.1-11.5Q97.1-17.4 100.45-21.05 103.8-24.7 109.6-24.5ZM155.8 0.5L155.8 0.5Q152.1-2.35 150.85-5.25 149.6-8.15 149-13.8L149-13.8 148.5-13.8Q147.9-8.15 146.65-5.25 145.4-2.35 141.7 0.5L141.7 0.5Q138.25-1.2 136.22-5.65 134.2-10.1 133.85-16.65L133.85-16.65 133.5-24 137.95-24 138.35-16.85Q138.8-8.65 141.6-4.95L141.6-4.95Q142.35-5.8 143-6.85 143.65-7.9 144.1-9.18 144.55-10.45 144.88-11.43 145.2-12.4 145.47-13.93 145.75-15.45 145.85-16.15 145.95-16.85 146.13-18.4 146.3-19.95 146.35-20.15L146.35-20.15 151.15-20.15Q151.2-19.95 151.38-18.4 151.55-16.85 151.65-16.15 151.75-15.45 152.03-13.93 152.3-12.4 152.63-11.43 152.95-10.45 153.4-9.18 153.85-7.9 154.5-6.85 155.15-5.8 155.9-4.95L155.9-4.95Q158.7-8.65 159.15-16.85L159.15-16.85 159.55-24 164-24 163.65-16.65Q163.3-10.1 161.28-5.65 159.25-1.2 155.8 0.5ZM171.5-20.85L171.5-20.85Q175-24.5 180.25-24.5L180.25-24.5Q182.8-24.5 185.03-23.53 187.25-22.55 188.93-20.85 190.6-19.15 191.55-16.88 192.5-14.6 192.5-12L192.5-12Q192.5-9.4 191.57-7.13 190.65-4.85 189-3.15 187.35-1.45 185.1-0.48 182.85 0.5 180.25 0.5L180.25 0.5Q177.6 0.5 175.38-0.48 173.15-1.45 171.5-3.15 169.85-4.85 168.93-7.13 168-9.4 168-12L168-12Q168-17.3 171.5-20.85ZM180.25-20.3L180.25-20.3Q176.75-20.3 174.63-18 172.5-15.7 172.5-12 172.5-8.3 174.63-6 176.75-3.7 180.25-3.7L180.25-3.7Q183.8-3.7 185.9-6.03 188-8.35 188-12 188-15.65 185.9-17.98 183.8-20.3 180.25-20.3ZM201.4 0L197 0 197-13.65Q197-19.4 199.15-21.6L199.15-21.6Q200.2-22.7 201.7-23.25 203.2-23.8 204.32-23.9 205.45-24 207.4-24L207.4-24 211.8-24 211.8-19.8 206.5-19.8Q205.5-19.8 204.95-19.75 204.4-19.7 203.65-19.4 202.9-19.1 202.35-18.45L202.35-18.45Q201.4-17.25 201.4-13.65L201.4-13.65 201.4 0ZM215.05-9.5L215.05-9.5 215.05-35 219.55-35 219.55-9.5Q219.55-7.7 219.98-6.58 220.4-5.45 221.3-4.98 222.2-4.5 223.05-4.35 223.9-4.2 225.3-4.2L225.3-4.2 225.3 0Q219.7 0 217.38-2.15 215.05-4.3 215.05-9.5ZM247.3-4.2L247.3-35 251.8-35 251.8 0 240.05 0Q234.6 0 231.2-3.48 227.8-6.95 227.8-12.25L227.8-12.25Q227.8-17.45 231.33-20.98 234.85-24.5 239.7-24.5L239.7-24.5Q242.8-24.5 245.5-23L245.5-23 245.5-18.5Q243-20.3 239.7-20.3L239.7-20.3Q236.7-20.3 234.63-18.07 232.55-15.85 232.55-12.25L232.55-12.25Q232.55-8.6 234.53-6.4 236.5-4.2 240.05-4.2L240.05-4.2 247.3-4.2ZM259 7.75L259 7.75 256.5 6.15Q258.4 2.45 258.7 0L258.7 0 255.3 0 257.3-4.2 263.85-4.2Q263.85 2.8 259 7.75ZM285.45-35L285.45 0 280.75 0 280.75-35 285.45-35ZM316.95-14.1L316.95-14.1 316.95-9.6Q315.05-11.05 312.3-11.05L312.3-11.05Q309.95-11.05 308.65-10.13 307.35-9.2 307.35-7.5L307.35-7.5Q307.35-4.2 312.25-4.2L312.25-4.2 318.85-4.2 318.85-13.75Q318.85-19.8 312.95-19.8L312.95-19.8 304.95-19.8 304.95-24 313.2-24Q318.05-24 320.65-21.6 323.25-19.2 323.25-14.7L323.25-14.7 323.25 0 312.1 0Q307.85 0 305.35-1.9 302.85-3.8 302.85-7.45 302.85-11.1 305.5-13 308.15-14.9 312.15-14.9L312.15-14.9Q314.4-14.9 316.95-14.1ZM329 0L329-24 351.05-24Q354.6-24 356.7-22.65L356.7-22.65Q358.85-21.3 359.52-19.15 360.2-17 360.2-14L360.2-14 360.2 0 355.8 0 355.8-14Q355.8-17.9 353.45-19.15L353.45-19.15Q352.25-19.8 348.6-19.8L348.6-19.8 346.55-19.8 346.55 0 342.15 0 342.15-19.8 333.4-19.8 333.4 0 329 0ZM379.8-19.8L375.35-19.8 384.3-28.75 384.3-24 391.05-24 391.05-19.8 384.3-19.8 384.3-9.5Q384.3-7.75 384.87-6.6 385.45-5.45 386.55-4.98 387.65-4.5 388.62-4.35 389.6-4.2 391.05-4.2L391.05-4.2 391.05 0Q385.3 0 382.55-2.2 379.8-4.4 379.8-9.5L379.8-9.5 379.8-19.8ZM395.8-35L400.2-35 400.2-24 404.45-24Q410-24 412.4-22.35L412.4-22.35Q414.55-20.9 415.12-18.88 415.7-16.85 415.7-13.55L415.7-13.55 415.7 0 411.3 0 411.3-13.5Q411.3-14.4 411.25-15.03 411.2-15.65 410.9-16.63 410.6-17.6 410.05-18.23 409.5-18.85 408.45-19.33 407.4-19.8 405.9-19.8L405.9-19.8 400.2-19.8 400.2 0 395.8 0 395.8-35ZM433.45-24.5L433.45-24.5Q441.95-24.15 441.95-17.45L441.95-17.45Q441.95-9.1 431-9.1L431-9.1 428.95-9.1 428.95-12.95 431.35-12.95Q434.7-12.95 436-13.98 437.3-15 437.3-17.4L437.3-17.4Q437.3-18.95 436.15-19.73 435-20.5 433.2-20.5L433.2-20.5Q429.65-20.5 427.62-18 425.6-15.5 425.6-12L425.6-12Q425.6-8.3 427.77-6 429.95-3.7 433.45-3.7L433.45-3.7Q436.6-3.7 438.6-5.25L438.6-5.25 441.6-2.3Q438.15 0.5 433.45 0.5L433.45 0.5Q427.75 0.5 424.35-2.85 420.95-6.2 420.95-11.5L420.95-11.5Q420.95-17.4 424.3-21.05 427.65-24.7 433.45-24.5ZM461.35-20.85L461.35-20.85Q464.85-24.5 470.1-24.5L470.1-24.5Q472.65-24.5 474.87-23.53 477.1-22.55 478.77-20.85 480.45-19.15 481.4-16.88 482.35-14.6 482.35-12L482.35-12Q482.35-9.4 481.42-7.13 480.5-4.85 478.85-3.15 477.2-1.45 474.95-0.48 472.7 0.5 470.1 0.5L470.1 0.5Q467.45 0.5 465.22-0.48 463-1.45 461.35-3.15 459.7-4.85 458.77-7.13 457.85-9.4 457.85-12L457.85-12Q457.85-17.3 461.35-20.85ZM470.1-20.3L470.1-20.3Q466.6-20.3 464.47-18 462.35-15.7 462.35-12 462.35-8.3 464.47-6 466.6-3.7 470.1-3.7L470.1-3.7Q473.65-3.7 475.75-6.03 477.85-8.35 477.85-12 477.85-15.65 475.75-17.98 473.65-20.3 470.1-20.3ZM487.85 0L487.85-24 496.5-24Q502.05-24 504.45-22.35L504.45-22.35Q506.6-20.9 507.17-18.88 507.75-16.85 507.75-13.55L507.75-13.55 507.75 0 503.35 0 503.35-13.5Q503.35-14.4 503.3-15.03 503.25-15.65 502.95-16.63 502.65-17.6 502.1-18.23 501.55-18.85 500.5-19.33 499.45-19.8 497.95-19.8L497.95-19.8 492.25-19.8 492.25 0 487.85 0ZM525.5-24.5L525.5-24.5Q534-24.15 534-17.45L534-17.45Q534-9.1 523.05-9.1L523.05-9.1 521-9.1 521-12.95 523.4-12.95Q526.75-12.95 528.05-13.98 529.35-15 529.35-17.4L529.35-17.4Q529.35-18.95 528.2-19.73 527.05-20.5 525.25-20.5L525.25-20.5Q521.7-20.5 519.67-18 517.65-15.5 517.65-12L517.65-12Q517.65-8.3 519.82-6 522-3.7 525.5-3.7L525.5-3.7Q528.65-3.7 530.65-5.25L530.65-5.25 533.65-2.3Q530.2 0.5 525.5 0.5L525.5 0.5Q519.8 0.5 516.4-2.85 513-6.2 513-11.5L513-11.5Q513-17.4 516.35-21.05 519.7-24.7 525.5-24.5ZM564-14.1L564-14.1 564-9.6Q562.1-11.05 559.35-11.05L559.35-11.05Q557-11.05 555.7-10.13 554.4-9.2 554.4-7.5L554.4-7.5Q554.4-4.2 559.3-4.2L559.3-4.2 565.9-4.2 565.9-13.75Q565.9-19.8 560-19.8L560-19.8 552-19.8 552-24 560.25-24Q565.1-24 567.7-21.6 570.3-19.2 570.3-14.7L570.3-14.7 570.3 0 559.15 0Q554.9 0 552.4-1.9 549.9-3.8 549.9-7.45 549.9-11.1 552.55-13 555.2-14.9 559.2-14.9L559.2-14.9Q561.45-14.9 564-14.1ZM576.05 0L576.05-24 584.7-24Q590.25-24 592.65-22.35L592.65-22.35Q594.8-20.9 595.37-18.88 595.95-16.85 595.95-13.55L595.95-13.55 595.95 0 591.55 0 591.55-13.5Q591.55-14.4 591.5-15.03 591.45-15.65 591.15-16.63 590.85-17.6 590.3-18.23 589.75-18.85 588.7-19.33 587.65-19.8 586.15-19.8L586.15-19.8 580.45-19.8 580.45 0 576.05 0ZM620.7-4.2L620.7-35 625.2-35 625.2 0 613.45 0Q608 0 604.6-3.48 601.2-6.95 601.2-12.25L601.2-12.25Q601.2-17.45 604.72-20.98 608.25-24.5 613.1-24.5L613.1-24.5Q616.2-24.5 618.9-23L618.9-23 618.9-18.5Q616.4-20.3 613.1-20.3L613.1-20.3Q610.1-20.3 608.02-18.07 605.95-15.85 605.95-12.25L605.95-12.25Q605.95-8.6 607.92-6.4 609.9-4.2 613.45-4.2L613.45-4.2 620.7-4.2ZM645.6-20.85L645.6-20.85Q649.1-24.5 654.35-24.5L654.35-24.5Q656.9-24.5 659.12-23.53 661.35-22.55 663.02-20.85 664.7-19.15 665.65-16.88 666.6-14.6 666.6-12L666.6-12Q666.6-9.4 665.67-7.13 664.75-4.85 663.1-3.15 661.45-1.45 659.2-0.48 656.95 0.5 654.35 0.5L654.35 0.5Q651.7 0.5 649.47-0.48 647.25-1.45 645.6-3.15 643.95-4.85 643.02-7.13 642.1-9.4 642.1-12L642.1-12Q642.1-17.3 645.6-20.85ZM654.35-20.3L654.35-20.3Q650.85-20.3 648.72-18 646.6-15.7 646.6-12 646.6-8.3 648.72-6 650.85-3.7 654.35-3.7L654.35-3.7Q657.9-3.7 660-6.03 662.1-8.35 662.1-12 662.1-15.65 660-17.98 657.9-20.3 654.35-20.3ZM672.1 0L672.1-24 680.75-24Q686.3-24 688.7-22.35L688.7-22.35Q690.85-20.9 691.42-18.88 692-16.85 692-13.55L692-13.55 692 0 687.6 0 687.6-13.5Q687.6-14.4 687.55-15.03 687.5-15.65 687.2-16.63 686.9-17.6 686.35-18.23 685.8-18.85 684.75-19.33 683.7-19.8 682.2-19.8L682.2-19.8 676.5-19.8 676.5 0 672.1 0ZM698-9.5L698-9.5 698-35 702.5-35 702.5-9.5Q702.5-7.7 702.92-6.58 703.35-5.45 704.25-4.98 705.15-4.5 706-4.35 706.85-4.2 708.25-4.2L708.25-4.2 708.25 0Q702.65 0 700.32-2.15 698-4.3 698-9.5ZM710.75-11.65L710.75-24 715.15-24 715.15-11.45Q715.15-7.4 716.4-5.8 717.65-4.2 721-4.2L721-4.2 726.25-4.2 726.25-24 730.65-24 730.65-1.2Q730.65 5.05 727.37 8.22 724.1 11.4 717.1 11.4L717.1 11.4 713.5 11.4 713.5 7.2 716.65 7.2Q725.8 7.2 726.25 0L726.25 0 722.05 0Q715.5 0 713.12-2.3 710.75-4.6 710.75-11.65L710.75-11.65Z" opacity="1" transform="matrix(1,0,0,1,0,0)" fill="#bb84e8" class="undefined-text-1" data-fill-palette-color="secondary" id="text-1"></path></svg></g></svg></g></svg></g></svg></g><g transform="matrix(1,0,0,1,90.5157408,0)"><svg viewBox="0 0 214.48851839999998 214.48851839999998" height="214.48851839999998" width="214.48851839999998"><g><svg></svg></g><g id="icon-0"><svg viewBox="0 0 214.48851839999998 214.48851839999998" height="214.48851839999998" width="214.48851839999998"><g><rect width="195.02567136" height="195.02567136" x="9.731423519999993" y="9.731423519999993" fill="#bb84e8" data-fill-palette-color="accent"></rect><rect width="195.02567136" height="195.02567136" x="-5.329070518200751e-15" y="19.462847039999993" fill="#bb84e8" opacity="0.5" data-fill-palette-color="accent"></rect></g><g transform="matrix(1,0,0,1,27.80406719999999,28.441840796734567)"><svg viewBox="0 0 158.880384 157.60483680653084" height="157.60483680653084" width="158.880384"><g><svg xmlns="http://www.w3.org/2000/svg" xmlns:xlink="http://www.w3.org/1999/xlink" version="1.1" x="0" y="0" viewBox="2.4162349700927734 2.9996466636657715 95.58375549316406 94.81637573242188" enable-background="new 0 0 100 100" xml:space="preserve" height="157.60483680653084" width="158.880384" class="icon-s-0" data-fill-palette-color="background" id="s-0"><g fill="#471aa0" data-fill-palette-color="background"><path d="M50.188 11.92c6.118 0 5.461-10.126-1.188-8.482C44.355 4.587 45.205 11.92 50.188 11.92z" fill="#471aa0" data-fill-palette-color="background"></path><path d="M89.976 7.878c-9.128-7.446-22.612-6.193-30.989 2.562l7.709 6.289c-5.085-2.353-11.031-3.804-17.826-3.48-5.809 0.276-10.869 1.587-15.342 3.637l7.902-6.446C33.053 1.686 19.568 0.433 10.44 7.878S-0.17 28.785 6.725 38.75l10.965-8.945c-4.62 6.258-8.036 14.579-7.499 24.835 0.655 12.508 5.257 21.102 12.384 27.65 0.186 0.171 0.381 0.337 0.57 0.506-1.534 6.848-2.301 14.125-0.225 14.943 1.83 0.722 5.469-3.737 8.739-8.951 5.521 2.94 12.094 4.774 19.923 4.529 6.531-0.205 12.229-1.891 17.138-4.479 3.262 5.192 6.884 9.62 8.708 8.901 2.069-0.815 1.313-8.05-0.211-14.878 0.694-0.628 1.371-1.268 2.017-1.927 6.56-6.701 11.383-16.145 11.026-29.01-0.243-8.769-3.31-16.308-7.459-22.058L93.69 38.75C100.587 28.785 99.104 15.324 89.976 7.878zM75.949 47.996L52.306 58c-0.421 0.18-0.862 0.27-1.311 0.27-0.641 0-1.267-0.193-1.773-0.545-0.573-0.309-1.003-0.771-1.247-1.348L34.898 25.475c-0.627-1.482 0.171-3.243 1.781-3.924 0.425-0.18 0.871-0.272 1.324-0.272 1.217 0 2.29 0.677 2.733 1.725l12.042 28.456 20.894-8.841c0.427-0.18 0.871-0.272 1.325-0.272 1.216 0 2.288 0.678 2.734 1.724C78.357 45.554 77.558 47.314 75.949 47.996z" fill="#471aa0" data-fill-palette-color="background"></path></g></svg></g></svg></g></svg></g></svg></g><g></g></svg></g><defs></defs></svg><rect width="282.63747777731237" height="247.2" fill="none" stroke="none" visibility="hidden"></rect></g></svg></g></svg>